<?xml version="1.0" encoding="UTF-8"?><svg id="Layer_1" xmlns="http://www.w3.org/2000/svg" 
 width="40" height="40" viewBox="0 0 384 384"><defs><style>.cls-1{fill:#185a6f;}.cls-2{fill:#272f32;}.cls-3{fill:#babdbe;}.cls-4{fill:#79969f;}.cls-5{fill:#343b3e;}.cls-6{fill:#fff;}.cls-7{fill:#31383b;}.cls-8{fill:#bcbfc0;}.cls-9{fill:#7a7e80;}.cls-10{fill:#888d8f;}.cls-11{fill:#878c8e;}.cls-12{fill:#182024;}.cls-13{fill:#668893;}.cls-14{fill:#21292c;}.cls-15{fill:#6a6f71;}.cls-16{fill:#696e70;}.cls-17{fill:#0e5d74;}.cls-18{fill:#b1c2c6;}.cls-19{fill:#989c9e;}.cls-20{fill:#3e4548;}.cls-21{fill:#d2d4d4;}.cls-22{fill:#537c87;}.cls-23{fill:#6c7173;}.cls-24{fill:#cfd1d2;}.cls-25{fill:#a8abad;}.cls-26{fill:#1dd882;}.cls-27{fill:#999d9f;}.cls-28{fill:#9b9fa0;}.cls-29{fill:#bdc0c1;}.cls-30{fill:#d0d2d3;}.cls-31{fill:#b9bcbd;}.cls-32{fill:#356877;}.cls-33{fill:#44707e;}.cls-34{fill:#242c2f;}.cls-35{fill:#afc0c5;}.cls-36{fill:#0a9154;}.cls-37{fill:#aaadaf;}.cls-38{fill:#474d50;}.cls-39{fill:#acafb1;}.cls-40{fill:#527b86;}.cls-41{fill:#a9acae;}.cls-42{fill:#51bdf8;}.cls-43{fill:#275f71;}.cls-44{fill:#648791;}.cls-45{fill:#51575a;}.cls-46{fill:#8fa6ae;}.cls-47{fill:#7d8183;}.cls-48{fill:#41484b;}.cls-49{fill:#265f71;}.cls-50{fill:#5c6164;}.cls-51{fill:#8b9091;}.cls-52{fill:#010a0e;}.cls-53{fill:#262e31;}.cls-54{fill:#4e5457;}.cls-55{fill:#2a3135;}.cls-56{fill:#1e2629;}.cls-57{fill:#898e8f;}.cls-58{fill:#11191d;}.cls-59{fill:#5a6062;}.cls-60{fill:#4f5558;}.cls-61{fill:#52585b;}.cls-62{fill:#e9edf5;}.cls-63{fill:#0e617a;}.cls-64{fill:#444a4d;}.cls-65{fill:#376a78;}.cls-66{fill:#d2dbdd;}.cls-67{fill:#abaeb0;}.cls-68{fill:#426f7d;}.cls-69{fill:#454b4e;}.cls-70{fill:#7c8082;}.cls-71{fill:#797d7f;}.cls-72{fill:#4ab8f7;}.cls-73{fill:#90a7af;}.cls-74{fill:#373e41;}.cls-75{fill:#3b4245;}.cls-76{fill:#80dbff;}</style></defs><path class="cls-52" d="m189,384h-2.25c-.5-.25-1-.5-1.5-.75-.25,0-.5,0-.75,0-.51.02-1.01.05-1.52.07-.25-.06-.5-.06-.74.03-.25,0-.5,0-.76,0-.25,0-.5,0-.75,0h-.75c-.25,0-.5,0-.75,0-.25,0-.5,0-.75,0h-.75c-.25,0-.5,0-.75,0-.25.21-.49.42-.74.63h-1.5c-.48-.25-.95-.66-1.45-.72-6.3-.8-12.74-.98-18.89-2.42-13-3.04-25.78-6.83-38.14-12.11-22.45-9.61-42-23.37-59.5-40.19-4.25-4.09-7.89-8.8-11.83-13.22-8.52-9.56-15.61-20.12-21.71-31.34-11.35-20.9-19.1-42.98-21.76-66.72C1.15,214.33.5,211.42,0,208.5c0-.5,0-1,0-1.5.21-.25.42-.49.63-.74,0-.25,0-.5,0-.75,0-.25,0-.5,0-.75,0-.25,0-.5,0-.75,0-.25,0-.5,0-.75,0-.25,0-.5,0-.75,0-.25,0-.5,0-.75,0-.25,0-.5.01-.75,0-.25.01-.5.02-.75,0-.25.02-.5.03-.75.01-.25.02-.51.03-.76,0-.25,0-.5,0-.75-.25-.25-.5-.5-.75-.75,0-3.5,0-7,0-10.5.24-.25.48-.51.71-.76.04-.24.05-.49.03-.74,0-.25,0-.5,0-.75,0-.25,0-.5,0-.75,0-.25,0-.5,0-.75,0-.25,0-.5,0-.75-.03-.26-.06-.51-.09-.77,0-.25,0-.5-.01-.75,0-.25,0-.5,0-.75,0-.25,0-.5,0-.75,0-.25,0-.5,0-.75,0-.25,0-.5,0-.75-.21-.25-.42-.49-.63-.74,0-.5,0-1,0-1.5.5-2.92,1.18-5.82,1.47-8.77,1.11-11.51,3.96-22.61,7.42-33.59,4.15-13.15,9.74-25.7,16.79-37.5,9.93-16.64,21.64-31.86,36.25-44.83,9.51-8.44,19.48-16.13,30.34-22.74,16.49-10.04,33.99-17.67,52.79-21.97,10.27-2.35,20.77-3.68,31.16-5.47.25,0,.51,0,.76,0,.25,0,.5,0,.75,0,.25,0,.5,0,.75,0,.25,0,.5,0,.75,0,.25,0,.5,0,.75,0h.75c.25,0,.5,0,.75.01.25,0,.5,0,.75,0,.25,0,.5,0,.75.01.25.01.5.02.75.03.5-.23,1.01-.47,1.51-.7,4,0,8,0,12,0,.51.23,1.02.46,1.53.69.49.02.98.04,1.47.06.25,0,.5,0,.75,0,.25,0,.5,0,.75,0,.26-.03.51-.06.77-.09.25,0,.5,0,.75-.01.25,0,.5,0,.75,0h.75c.25,0,.5,0,.75,0,.25,0,.5,0,.75,0,.25,0,.5,0,.75,0,.25,0,.51,0,.76,0,6.72,1.04,13.46,1.98,20.16,3.14,15.99,2.77,31.26,7.9,45.95,14.73,16.04,7.46,30.48,17.34,43.92,28.83,11.52,9.84,21.31,21.17,30.28,33.29,9.59,12.96,16.74,27.21,22.65,42.14,5.55,14,9.2,28.46,11.04,43.39.44,3.61,1.07,7.21,1.61,10.81,0,.26,0,.52,0,.78,0,.25,0,.5,0,.75,0,.25,0,.5,0,.75,0,.25,0,.5,0,.75,0,.25,0,.5,0,.75,0,.25,0,.5,0,.75,0,.25,0,.5,0,.76,0,.25,0,.5-.01.75,0,.25-.02.5-.03.75-.02.25-.03.51-.05.76,0,.25,0,.5,0,.75v.75c0,.25,0,.5,0,.75,0,.25,0,.5,0,.75,0,.72-.01,1.44-.02,2.17-2.25-2.2-4.51-4.39-6.76-6.59,1.29-3.41-.46-5.76-2.47-8.31-2.36-2.98-5.3-3.31-8.63-3.02-.22-.3-.41-.63-.67-.89-19.65-19.66-39.29-39.33-58.98-58.95-.72-.72-1.84-1.05-2.77-1.56-7.75-7.92-15.2-16.15-23.34-23.64-5.33-4.91-11.31-9.3-17.57-12.95-9.65-5.62-19.9-10.24-30.8-12.94-8.56-2.12-17.25-3.84-25.97-5.2-4.26-.67-8.71-.12-13.18-.12,0,7.01,0,14.36,0,21.7.87,1.04,1.66,2.14,2.61,3.1,10.84,10.87,21.71,21.71,32.52,32.6.91.91,1.48,2.16,2.21,3.26-.99-.36-2-.67-2.97-1.08-7.44-3.18-15.02-5.82-23.21-6.19-1.99-.25-3.99-.5-5.98-.75-1.76,0-3.52,0-5.28,0-3.24,0-6.48,0-9.72,0-2.27.46-4.52.95-6.8,1.36-21.29,3.87-38.3,14.9-51.4,31.78-10.3,13.27-15.44,28.74-16.92,45.43-1.68-1.24-3.35-2.48-5.03-3.72-.31-.64-.49-1.42-.96-1.9-10.91-10.97-21.87-21.89-32.78-32.86-1.86-1.87-3.27-1.5-4.98.24-6.65,6.76-13.38,13.44-20.11,20.12-4.76,4.72-9.59,9.38-14.61,14.28,3.99,3.97,7.55,7.61,11.23,11.13,1.57,1.51,3.38,2.77,5.08,4.14,1.07,1.35,2.01,2.86,3.25,4.02,2.08,1.95,4.36,3.69,6.56,5.51.22.26.58.5.64.8,1.79,8.14,3.19,16.38,5.39,24.41,3.54,12.88,9.64,24.68,17,35.78,7.72,11.65,17.8,21.25,27.83,30.85,1.65,1.58,3.62,2.83,5.44,4.23.87,1.29,1.55,2.75,2.62,3.83,24.25,24.32,48.54,48.59,72.8,72.91,1,1.01,1.66,2.36,2.48,3.55Z"/><path class="cls-63" d="m376.47,183.08c2.25,2.2,4.51,4.39,6.76,6.59.26.03.51.05.77.08v3.75l-.75,4.5c0,1,0,2,0,3,0,.5,0,1,0,1.5,0,.25,0,.5,0,.75,0,.25,0,.5,0,.75.01.25.02.51.03.76.01.25.03.5.04.76,0,.25.01.5.02.75,0,.25.01.51.02.76,0,.26,0,.52,0,.77-.29.78-.83,1.57-.83,2.35.03,11.38-2.92,22.23-5.83,33.07-4.53,16.86-11.43,32.69-20.39,47.71-12.26,20.57-28,38.06-46.65,52.83-13.95,11.05-29.29,20.02-45.95,26.57-17.78,6.98-36.02,11.97-55.19,13.03-.25,0-.5,0-.75,0-.25,0-.5,0-.75-.01-.25,0-.5,0-.76-.01-.25,0-.5-.01-.75-.02-.25-.01-.51-.03-.76-.04-.25,0-.51-.02-.76-.03-.25,0-.5,0-.75,0-.25,0-.5,0-.75,0-.5.25-1,.5-1.5.75h-12c-.82-1.19-1.48-2.54-2.48-3.55-24.25-24.32-48.55-48.59-72.8-72.91-1.07-1.08-1.76-2.55-2.62-3.83,2.69,1.61,5.44,3.13,8.06,4.84,11.27,7.36,23.62,12.33,36.42,16.12,11.08,3.28,22.51,4.81,34.09,4.76.78,0,2.21-1.36,2.23-2.12.18-6.48.1-12.96.1-20.08-20.84-.4-40.27-5.36-58.12-16.08-17.86-10.72-31.88-25.06-42.26-43.12-10.37-18.05-14.77-37.51-14.94-58.99,3.87,3.38,7.08,6.19,9.84,8.59,5.27-4.95,10.44-9.8,15.61-14.65,1.68,1.24,3.35,2.48,5.03,3.72-.33,13.92,1.66,27.38,7.58,40.14,5.34,11.53,12.66,21.51,22.55,29.56,3.87,2.79,7.57,5.88,11.66,8.32,13.22,7.92,27.5,12.26,43.04,11.91.26,0,.52,0,.77,0,2.54-.21,5.08-.43,7.63-.64,12.72-.55,24.48-4.12,35.13-11.19,1,.48,2.18,1.55,2.96,1.31,2.31-.71,3.56-2.46,3.04-5.07,1.5-1.26,3.01-2.52,4.51-3.77.99-.77,1.99-1.53,2.98-2.3,1.04,2.12,2.74,1.72,3.97.57,2.05-1.91,4.12-4.03,2.78-7.32.5-.5.99-1,1.49-1.5,1.03-.07,2.52.27,3.02-.29,1.78-1.98,3.7-4.13,2.24-7.2l5.3-9.73c1.42-.69,3.79-1.15,4.03-2.13.39-1.6-.61-3.54-1.02-5.34,0-.25-.02-.51-.03-.76,1.25-3.25,2.5-6.5,3.74-9.75.06-1.63-.36-3.5.28-4.86,2.14-4.52,1.15-9.18,1.2-13.81.12-11.4-1.5-22.47-6.08-32.99-4.25-9.76-9.64-18.78-17.18-26.39.31-3.64.23-6.99-4.81-6.09-1.02-4.69-1.81-5.13-5.73-3.54-2.49-1.56-4.97-3.13-7.46-4.69-.76-1.84-1.06-4.14-2.35-5.46-10.51-10.77-21.23-21.34-31.83-32.02-1.01-1.02-1.72-2.34-2.56-3.52,3.07.21,6.14.34,9.2.63,11.02,1.07,21.49,4.21,31.52,8.8,15.23,6.96,28.76,16.2,39.7,29.13,8.53,10.08,15.87,20.88,19.99,33.41,3.14,9.55,5.45,19.43,7.41,29.3,1.07,5.42.65,11.14.96,17.86-3.61-3.88-6.4-6.88-8.93-9.6-5.52,5.63-10.78,10.99-15.73,16.03,11.71,11.71,23.88,23.87,35.83,35.81,12.03-12.04,24.26-24.27,36.84-36.85-4.73-4.41-9.65-9.11-14.75-13.6-.57-.5-2.57-.18-3.29.45-2.21,1.95-4.13,4.24-6.81,7.1-.59-3.7-1.09-6.3-1.41-8.93-1.04-8.52-1.62-17.11-3.1-25.55-2.55-14.54-8.46-27.87-15.92-40.54-2.2-3.74-4.36-7.51-6.54-11.26.93.51,2.05.84,2.77,1.56,19.69,19.63,39.33,39.29,58.98,58.95.26.26.45.59.66.89,3.7,3.78,7.4,7.55,11.1,11.33Z"/><path class="cls-17" d="m383.25,198l.75-4.5v4.5c-.25,0-.5,0-.75,0Z"/><path class="cls-1" d="m383.25,198c.25,0,.5,0,.75,0v3c-.25,0-.5,0-.75,0,0-1,0-2,0-3Z"/><path class="cls-58" d="m384,189.75c-.26-.03-.51-.05-.77-.08,0-.72.01-1.45.02-2.17,0,0,.37,0,.37,0h.37v2.25Z"/><path class="cls-43" d="m201,384c.5-.25,1-.5,1.5-.75,0,.25,0,.5,0,.75h-1.5Z"/><path class="cls-49" d="m383.25,201c.25,0,.5,0,.75,0v1.5c-.25,0-.5,0-.75,0,0-.5,0-1,0-1.5Z"/><path class="cls-53" d="m185.25,383.25c.5.25,1,.5,1.5.75h-1.5c0-.25,0-.5,0-.75Z"/><path class="cls-74" d="m200.25.75c-.49-.02-.98-.04-1.47-.06-.02-.23-.03-.46-.03-.69h1.5c0,.25,0,.5,0,.75Z"/><path class="cls-34" d="m198.75,0c0,.23.01.46.03.69-.51-.23-1.02-.46-1.53-.69.5,0,1,0,1.5,0Z"/><path class="cls-48" d="m182.98,383.33c.51-.02,1.01-.05,1.52-.08,0,.25,0,.5,0,.75h-1.5c0-.22,0-.45-.02-.67Z"/><path class="cls-74" d="m185.25,0c-.5.23-1.01.47-1.51.7.01-.23.02-.47.01-.7C184.25,0,184.75,0,185.25,0Z"/><path class="cls-55" d="m383.25,186c0-.25,0-.5,0-.75.25,0,.5,0,.75,0v.75c-.25,0-.5,0-.75,0Z"/><path class="cls-66" d="m208.53,383.37c-.02.21-.04.42-.03.63h-.75c0-.21,0-.42.03-.63.25,0,.5,0,.75,0Z"/><path class="cls-25" d="m.63,177.74c0,.25,0,.5,0,.75-.21,0-.42,0-.63.01v-.75c.21,0,.42-.01.63-.01Z"/><path class="cls-39" d="m383.37,178.49c0-.25,0-.5,0-.75.21,0,.42,0,.63.01v.75c-.21,0-.42,0-.63-.01Z"/><path class="cls-19" d="m0,178.5c.21,0,.42,0,.63-.01,0,.25,0,.5,0,.75-.21,0-.42.01-.63.02v-.75Z"/><path class="cls-28" d="m383.37,178.49c.21,0,.42,0,.63.01v.75c-.21,0-.42,0-.63-.01,0-.25,0-.5,0-.75Z"/><path class="cls-11" d="m0,179.25c.21,0,.42,0,.63-.02,0,.25,0,.5,0,.75-.21,0-.42.01-.63.02v-.75Z"/><path class="cls-51" d="m383.37,179.24c.21,0,.42.01.63.01v.75c-.21,0-.42,0-.63-.01,0-.25,0-.5,0-.75Z"/><path class="cls-71" d="m0,180c.21,0,.42,0,.63-.02,0,.25,0,.5,0,.75-.21,0-.42.01-.64.02v-.75Z"/><path class="cls-47" d="m383.37,179.99c.21,0,.42.01.63.01v.75c-.21,0-.42-.01-.64-.02,0-.25,0-.5,0-.75Z"/><path class="cls-16" d="m0,180.75c.21,0,.43,0,.64-.02,0,.25,0,.5.01.75-.22.01-.43.02-.65.02v-.75Z"/><path class="cls-23" d="m383.36,180.73c.21,0,.42.01.64.02v.75c-.21,0-.43-.01-.64-.02,0-.25,0-.5,0-.75Z"/><path class="cls-59" d="m0,181.5c.22,0,.43,0,.65-.02.03.26.06.51.1.77-.25,0-.5,0-.75,0v-.75Z"/><path class="cls-50" d="m383.36,181.48c.21,0,.43.02.64.02v.75c-.22,0-.43,0-.65-.01,0-.25,0-.5,0-.76Z"/><path class="cls-54" d="m0,182.25c.25,0,.5,0,.75,0,0,.25,0,.5,0,.75-.25,0-.5,0-.75,0v-.75Z"/><path class="cls-45" d="m383.35,182.24c.22,0,.43.01.65.01v.75c-.22,0-.44,0-.67-.01,0-.25,0-.5.01-.75Z"/><path class="cls-64" d="m0,183c.25,0,.5,0,.75,0,0,.25,0,.5,0,.75-.25,0-.5,0-.75,0v-.75Z"/><path class="cls-38" d="m383.33,182.99c.22,0,.44.01.67.01v.75c-.23,0-.46,0-.69,0,0-.25.02-.5.03-.75Z"/><path class="cls-75" d="m0,183.75c.25,0,.5,0,.75,0,0,.25,0,.5,0,.75-.25,0-.5,0-.75,0v-.75Z"/><path class="cls-20" d="m383.31,183.74c.23,0,.46,0,.69,0v.75c-.25,0-.5,0-.75,0,.02-.25.03-.51.05-.76Z"/><path class="cls-7" d="m0,184.5c.25,0,.5,0,.75,0,0,.25,0,.5,0,.75-.25,0-.5,0-.75,0v-.75Z"/><path class="cls-5" d="m383.25,184.5c.25,0,.5,0,.75,0v.75c-.25,0-.5,0-.75,0,0-.25,0-.5,0-.75Z"/><path class="cls-2" d="m0,185.25c.25,0,.5,0,.75,0,.01.25,0,.49-.03.74-.24,0-.48.01-.71.01v-.75Z"/><path class="cls-31" d="m.63,177.74c-.21,0-.42,0-.63.01C0,177.5,0,177.25,0,177c.21.25.42.49.63.74Z"/><path class="cls-56" d="m0,186c.24,0,.48,0,.71-.01-.24.25-.48.51-.71.76,0-.25,0-.5,0-.75Z"/><path class="cls-14" d="m383.25,186c.25,0,.5,0,.75,0v.75c-.25,0-.5,0-.75,0,0-.25,0-.5,0-.75Z"/><path class="cls-12" d="m383.25,186.75c.25,0,.5,0,.75,0v.75h-.37s-.37,0-.37,0c0-.25,0-.5,0-.75Z"/><path class="cls-30" d="m207.75,0c0,.21,0,.42.03.63-.25,0-.51,0-.76,0-.01-.21-.02-.42-.02-.63h.75Z"/><path class="cls-3" d="m207,0c0,.21,0,.42.02.63-.25,0-.5,0-.75,0-.01-.21-.01-.42-.01-.63h.75Z"/><path class="cls-37" d="m206.25,0c0,.21,0,.42.01.63-.25,0-.5,0-.75,0-.01-.21-.02-.42-.01-.63h.75Z"/><path class="cls-27" d="m205.5,0c0,.21,0,.42.01.63-.25,0-.5,0-.75,0-.01-.21-.02-.42-.01-.63h.75Z"/><path class="cls-56" d="m0,197.25c.25.25.5.5.75.75-.25,0-.5,0-.75,0C0,197.75,0,197.5,0,197.25Z"/><path class="cls-2" d="m0,198c.25,0,.5,0,.75,0,0,.25,0,.5,0,.75-.25,0-.5,0-.75,0v-.75Z"/><path class="cls-57" d="m204.75,0c0,.21,0,.42.01.63-.25,0-.5,0-.75,0-.01-.21-.02-.42-.02-.63h.75Z"/><path class="cls-7" d="m0,198.75c.25,0,.5,0,.75,0-.01.25-.02.51-.03.76-.24,0-.47-.01-.71,0v-.75Z"/><path class="cls-75" d="m0,199.5c.24,0,.48,0,.71,0-.01.25-.02.5-.03.75-.23,0-.46-.01-.68-.01v-.75Z"/><path class="cls-64" d="m0,200.25c.23,0,.46,0,.68.01,0,.25-.01.5-.02.75-.22,0-.45-.01-.67-.01v-.75Z"/><path class="cls-54" d="m0,201c.22,0,.45,0,.67.01,0,.25,0,.5-.01.75-.22,0-.44-.01-.66-.02v-.75Z"/><path class="cls-9" d="m204,0c0,.21,0,.42.02.63-.25,0-.5,0-.75,0-.01-.21-.02-.43-.02-.64h.75Z"/><path class="cls-59" d="m0,201.75c.22,0,.44,0,.66.02,0,.25,0,.5,0,.75-.21-.01-.43-.02-.65-.02v-.75Z"/><path class="cls-15" d="m0,202.5c.22,0,.43,0,.65.02,0,.25,0,.5,0,.75-.21,0-.43-.01-.64-.02v-.75Z"/><path class="cls-65" d="m383.25,202.5c.25,0,.5,0,.75,0v.75c-.25,0-.5,0-.75,0,0-.25,0-.5,0-.75Z"/><path class="cls-9" d="m0,203.25c.21,0,.43,0,.64.02,0,.25,0,.5,0,.75-.21,0-.42-.01-.64-.02v-.75Z"/><path class="cls-33" d="m383.25,203.25c.25,0,.5,0,.75,0v.75c-.25,0-.5,0-.75,0,0-.25,0-.5,0-.75Z"/><path class="cls-57" d="m0,204c.21,0,.42,0,.64.02,0,.25,0,.5,0,.75-.21,0-.42-.01-.63-.01v-.75Z"/><path class="cls-22" d="m383.25,204c.25,0,.5,0,.75,0v.75c-.24,0-.48,0-.71.01-.01-.25-.02-.51-.03-.76Z"/><path class="cls-27" d="m0,204.75c.21,0,.42,0,.63.01,0,.25,0,.5,0,.75-.21,0-.42-.01-.63-.01v-.75Z"/><path class="cls-13" d="m383.29,204.76c.24,0,.48-.01.71-.01v.75c-.23,0-.45,0-.68.02-.01-.25-.03-.5-.04-.76Z"/><path class="cls-41" d="m0,205.5c.21,0,.42,0,.63.01,0,.25,0,.5,0,.75-.21,0-.42,0-.63-.01v-.75Z"/><path class="cls-4" d="m383.32,205.52c.23-.01.45-.02.68-.02v.75c-.22,0-.44.01-.66.02,0-.25-.01-.5-.02-.75Z"/><path class="cls-3" d="m0,206.25c.21,0,.42,0,.63.01-.21.25-.42.49-.63.74,0-.25,0-.5,0-.75Z"/><path class="cls-46" d="m383.34,206.27c.22-.01.44-.02.66-.02v.75c-.21.02-.42.03-.64.03,0-.25-.01-.51-.02-.76Z"/><path class="cls-18" d="m383.36,207.03c.21,0,.42-.02.64-.03v.75l-.31.07h-.32c0-.27,0-.52,0-.78Z"/><path class="cls-15" d="m203.25,0c0,.21,0,.43.02.64-.25,0-.5,0-.75.01-.01-.22-.02-.43-.02-.65h.75Z"/><path class="cls-59" d="m202.5,0c0,.22,0,.43.02.65-.26.03-.51.06-.77.1,0-.25,0-.5,0-.75h.75Z"/><path class="cls-60" d="m201.75,0c0,.25,0,.5,0,.75-.25,0-.5,0-.75,0,0-.25,0-.5,0-.75h.75Z"/><path class="cls-69" d="m201,0c0,.25,0,.5,0,.75-.25,0-.5,0-.75,0,0-.25,0-.5,0-.75h.75Z"/><path class="cls-69" d="m183.75,0c0,.23,0,.47-.01.7-.25-.01-.5-.02-.75-.03.01-.22.01-.44.01-.67h.75Z"/><path class="cls-60" d="m183,0c0,.22,0,.45-.01.67-.25,0-.5,0-.75-.01.01-.22.02-.44.01-.66h.75Z"/><path class="cls-59" d="m182.25,0c0,.22,0,.44-.01.66-.25,0-.5,0-.75,0,.01-.22.02-.43.02-.65h.75Z"/><path class="cls-16" d="m181.5,0c0,.22,0,.43-.02.65-.25,0-.5,0-.75,0,.01-.21.02-.43.02-.64h.75Z"/><path class="cls-71" d="m180.75,0c0,.21,0,.43-.02.64-.25,0-.5,0-.75,0,.01-.21.02-.42.02-.64h.75Z"/><path class="cls-10" d="m180,0c0,.21,0,.42-.02.64-.25,0-.5,0-.75,0,.01-.21.02-.42.01-.63h.75Z"/><path class="cls-27" d="m179.25,0c0,.21,0,.42-.01.63-.25,0-.5,0-.75,0,.01-.21.01-.42.01-.63h.75Z"/><path class="cls-21" d="m176.25,384c.25-.21.49-.42.74-.63.01.21.02.42.01.63h-.75Z"/><path class="cls-29" d="m177,384c0-.21,0-.42-.01-.63.25,0,.5,0,.75,0,.01.21.02.42.01.63h-.75Z"/><path class="cls-67" d="m177.75,384c0-.21,0-.42-.01-.63.25,0,.5,0,.75,0,.01.21.02.42.01.63h-.75Z"/><path class="cls-28" d="m178.5,384c0-.21,0-.42-.01-.63.25,0,.5,0,.75,0,.01.21.02.42.01.63h-.75Z"/><path class="cls-51" d="m179.25,384c0-.21,0-.42-.01-.63.25,0,.5,0,.75,0,.01.21.02.42.02.63h-.75Z"/><path class="cls-70" d="m180,384c0-.21,0-.42-.02-.63.25,0,.5,0,.75,0,.01.21.02.42.02.64h-.75Z"/><path class="cls-23" d="m180.75,384c0-.21,0-.43-.02-.64.25,0,.5,0,.75,0,.01.21.02.43.02.64h-.75Z"/><path class="cls-50" d="m181.5,384c0-.21,0-.43-.02-.64.25,0,.5,0,.76,0,0,.22.01.43.01.65h-.75Z"/><path class="cls-61" d="m182.25,384c0-.22,0-.43-.01-.65.24-.08.49-.09.74-.02.02.22.02.45.02.67h-.75Z"/><path class="cls-41" d="m178.5,0c0,.21,0,.42-.01.63-.25,0-.5,0-.75,0,.01-.21.01-.42.01-.63h.75Z"/><path class="cls-5" d="m184.5,384c0-.25,0-.5,0-.75.25,0,.5,0,.75,0,0,.25,0,.5,0,.75h-.75Z"/><path class="cls-31" d="m177.75,0c0,.21,0,.42-.01.63-.25,0-.5,0-.75,0,.01-.21.02-.42.02-.63h.75Z"/><path class="cls-24" d="m177,0c0,.21,0,.42-.02.63-.25,0-.51,0-.76,0,.02-.21.03-.42.03-.63h.75Z"/><path class="cls-32" d="m202.5,384c0-.25,0-.5,0-.75.25,0,.5,0,.75,0,0,.25,0,.5,0,.75h-.75Z"/><path class="cls-68" d="m203.25,384c0-.25,0-.5,0-.75.25,0,.5,0,.75,0,0,.25,0,.5,0,.75h-.75Z"/><path class="cls-40" d="m204,384c0-.25,0-.5,0-.75.25.01.51.02.76.03,0,.24-.01.48-.01.72h-.75Z"/><path class="cls-44" d="m204.75,384c0-.24,0-.48.01-.72.25.01.51.03.76.04-.02.23-.02.45-.02.68h-.75Z"/><path class="cls-4" d="m205.5,384c0-.23,0-.45.02-.68.25,0,.5.01.75.02-.02.22-.03.44-.02.66h-.75Z"/><path class="cls-73" d="m206.25,384c0-.22,0-.44.02-.66.25,0,.5.01.76.01-.02.21-.03.43-.03.64h-.75Z"/><path class="cls-35" d="m207,384c0-.22,0-.43.03-.64.25,0,.5,0,.75.01-.02.21-.03.42-.03.63h-.75Z"/><path class="cls-8" d="m384,177.75c-.21-.01-.42-.01-.63-.01,0-.26,0-.52,0-.78.21-.03.42-.02.63.04v.75Z"/><path class="cls-62" d="m302.96,110.34c2.18,3.76,4.34,7.52,6.54,11.26,7.46,12.67,13.37,26,15.92,40.54,1.48,8.44,2.06,17.03,3.1,25.55.32,2.62.82,5.22,1.41,8.93,2.68-2.85,4.6-5.15,6.81-7.1.72-.64,2.72-.95,3.29-.45,5.11,4.49,10.03,9.19,14.75,13.6-12.57,12.58-24.8,24.81-36.84,36.85-11.95-11.94-24.12-24.11-35.83-35.81,4.95-5.04,10.21-10.4,15.73-16.03,2.53,2.72,5.32,5.72,8.93,9.6-.31-6.73.12-12.45-.96-17.86-1.96-9.88-4.27-19.75-7.41-29.3-4.12-12.54-11.47-23.33-19.99-33.41-10.94-12.93-24.46-22.17-39.7-29.13-10.03-4.58-20.5-7.73-31.52-8.8-3.06-.3-6.13-.43-9.2-.63-1.97-.31-3.94-.61-5.91-.92v-21.7c4.47,0,8.92-.55,13.18.12,8.72,1.36,17.4,3.08,25.97,5.2,10.9,2.7,21.15,7.32,30.8,12.94,6.26,3.64,12.24,8.04,17.57,12.95,8.13,7.5,15.59,15.72,23.34,23.64Z"/><path class="cls-6" d="m102.12,182.98c-5.17,4.85-10.33,9.7-15.61,14.65-2.75-2.41-5.97-5.21-9.84-8.59.17,21.48,4.57,40.95,14.94,58.99,10.38,18.05,24.4,32.39,42.26,43.12,17.85,10.71,37.28,15.68,58.12,16.08,0,7.12.08,13.6-.1,20.08-.02.76-1.45,2.12-2.23,2.12-11.58.05-23.01-1.49-34.09-4.76-12.8-3.79-25.16-8.75-36.42-16.12-2.62-1.71-5.37-3.23-8.06-4.84-1.82-1.4-3.79-2.65-5.44-4.22-10.03-9.6-20.11-19.2-27.83-30.85-7.35-11.1-13.46-22.89-17-35.78-2.2-8.02-3.61-16.27-5.39-24.41-.07-.3-.42-.53-.64-.8-.17-5.69-.34-11.38-.5-17.07-.36-.08-.71-.15-1.07-.23-2.75,2.59-5.49,5.17-8.24,7.76-1.7-1.37-3.51-2.63-5.08-4.14-3.68-3.52-7.24-7.16-11.23-11.13,5.02-4.9,9.85-9.56,14.61-14.28,6.74-6.67,13.46-13.36,20.11-20.12,1.71-1.74,3.12-2.11,4.98-.24,10.91,10.97,21.87,21.89,32.78,32.86.48.48.65,1.26.96,1.9Z"/><path class="cls-26" d="m137.27,256.39c-9.88-8.05-17.2-18.03-22.55-29.56-5.91-12.75-7.91-26.22-7.58-40.14,1.48-16.69,6.62-32.16,16.92-45.43,13.11-16.88,30.11-27.91,51.4-31.78,2.27-.41,4.53-.91,6.8-1.36.35.91.57,1.91,1.07,2.72,3.18,5.16,4.92,10.72,4.92,16.82,0,6.19-2.43,11.64-5.51,16.71-4.95,8.15-11.15,15.12-20.44,18.57-5.55,2.06-11.25,3.79-16.66,6.17-5.25,2.31-7.26,7-6.84,12.5.36,4.67,4.09,6.38,7.97,7.63,3.75,1.21,7.56,2.28,11.29,3.55,4.89,1.67,6.79,5.35,5.48,10.47-.7,2.74-1.56,5.44-2.35,8.16-1.7,2.77-3.4,5.55-5.09,8.32-4.26,6.89-8.86,13.58-12.65,20.72-2.65,5-4.17,10.59-6.2,15.92Z"/><path class="cls-72" d="m234.75,119.13c2.49,1.56,4.97,3.13,7.46,4.69.3.49.61.97.91,1.46-1.09.52-2.16,1.07-3.27,1.54-9.69,4.15-15.2,9.93-14.01,20.21.43,3.74,1.28,7.66,2.98,10.97,4.45,8.65,9.46,17,14.27,25.46,3.41,6.02,6.8,12.01,2.54,19.06-2.62,4.33-6.46,7.15-11.07,8.91-4.95,1.89-9.98,3.55-14.98,5.28-5.92,2.05-7.32,3.94-7.32,9.97,0,9.16.24,18.33-.08,27.48-.22,6.22-2.24,11.72-7.94,15.51-1.86,1.24-2.6,4.15-3.86,6.29-2.54.21-5.08.43-7.63.64,0-54.53,0-109.05-.02-163.58,0-1.43-.44-2.86-.68-4.28-.02-.21-.04-.43-.05-.64,1.76,0,3.52,0,5.28,0,1.15,1.07,2.19,2.33,3.53,3.07.3.16,1.61-1.5,2.45-2.32,8.19.38,15.77,3.01,23.21,6.19.97.41,1.98.72,2.97,1.08,1.77.99,3.54,1.99,5.32,2.98Z"/><path class="cls-76" d="m191.99,108.12c.02.21.03.43.05.64-.01,1.75-.04,3.5-.04,5.24-.01,54.21-.02,108.41-.03,162.62-15.54.35-29.82-4-43.04-11.91-4.08-2.44-7.78-5.53-11.66-8.32,2.03-5.33,3.55-10.92,6.2-15.92,3.78-7.14,8.39-13.84,12.65-20.72,3.81-.4,6.35-4.56,5.09-8.32.79-2.72,1.65-5.42,2.35-8.16,1.31-5.12-.59-8.8-5.48-10.47-3.73-1.27-7.53-2.34-11.29-3.55-3.88-1.25-7.61-2.96-7.97-7.63-.42-5.5,1.58-10.19,6.84-12.5,5.41-2.38,11.11-4.11,16.66-6.17,9.29-3.45,15.5-10.42,20.44-18.57,3.08-5.08,5.51-10.52,5.51-16.71,0-6.1-1.74-11.66-4.92-16.82-.5-.82-.72-1.81-1.07-2.72,3.24,0,6.48,0,9.72,0Z"/><path class="cls-63" d="m234.75,119.13c-1.77-.99-3.54-1.99-5.32-2.98-.73-1.09-1.3-2.34-2.21-3.26-10.82-10.89-21.69-21.72-32.52-32.6-.95-.95-1.74-2.06-2.61-3.1,1.97.31,3.94.61,5.91.92.85,1.18,1.55,2.5,2.56,3.52,10.61,10.68,21.32,21.25,31.83,32.02,1.29,1.32,1.59,3.62,2.35,5.46Z"/><path class="cls-63" d="m44.98,198.12c2.75-2.59,5.49-5.17,8.24-7.76.36.08.71.15,1.07.23.17,5.69.34,11.38.5,17.07-2.2-1.83-4.48-3.56-6.56-5.51-1.25-1.17-2.18-2.67-3.25-4.02Z"/><path class="cls-52" d="m376.47,183.08c-3.7-3.78-7.4-7.55-11.1-11.33,3.33-.29,6.27.04,8.63,3.02,2.02,2.55,3.76,4.9,2.47,8.31Z"/><path class="cls-72" d="m203.25,108.88c-.84.82-2.16,2.49-2.45,2.32-1.33-.74-2.38-2-3.53-3.07,1.99.25,3.99.5,5.98.75Z"/><path class="cls-36" d="m200.37,275.99c1.25-2.15,2-5.06,3.86-6.29,5.7-3.8,7.72-9.29,7.94-15.51.32-9.15.08-18.32.08-27.48,0-6.03,1.4-7.92,7.32-9.97,5-1.73,10.04-3.39,14.98-5.28,4.61-1.76,8.45-4.59,11.07-8.91,4.26-7.05.88-13.04-2.54-19.06-4.8-8.46-9.82-16.82-14.27-25.46-1.7-3.3-2.55-7.23-2.98-10.97-1.19-10.29,4.32-16.07,14.01-20.21,1.11-.47,2.18-1.03,3.27-1.54,3.21,2.72,6.42,5.45,9.63,8.17,7.54,7.62,12.93,16.64,17.18,26.39,4.58,10.52,6.2,21.6,6.08,32.99-.05,4.63.94,9.29-1.2,13.81-.64,1.36-.22,3.23-.28,4.86-2.11-1.12-3.5-.94-3.8,1.85-.12,1.17-.98,2.3-.94,3.43.05,1.5.64,2.98,1,4.47,0,.25.02.51.03.76,0,0-.1-.04-.1-.04-1.18.47-3.18.76-3.35,1.47-.26,1.12.72,2.53,1.17,3.81-.24.75-.49,1.49-.73,2.24-1.77,3.24-3.54,6.48-5.3,9.73-.74.76-1.48,1.52-2.21,2.28-2.3-.09-3.76.12-4.97,2.97-.94,2.21-4.23,3.44-3.3,6.81-.49.49-.99.99-1.48,1.48-5.48,0-5.85.37-4.52,4.51-1.5,1.26-3.01,2.52-4.51,3.77-2,1.25-4,2.51-6,3.76-10.65,7.06-22.41,10.63-35.13,11.19Z"/><path class="cls-42" d="m191.97,276.63c0-54.21.02-108.41.03-162.62,0-1.75.02-3.5.04-5.24.24,1.43.68,2.86.68,4.28.03,54.53.03,109.05.02,163.58-.26,0-.52,0-.77,0Z"/><path class="cls-63" d="m252.75,133.45c-3.21-2.72-6.42-5.45-9.63-8.17-.3-.49-.61-.97-.91-1.46,3.92-1.59,4.71-1.16,5.73,3.54,5.04-.9,5.12,2.45,4.81,6.09Z"/><path class="cls-36" d="m252.01,251.28c-.93-3.37,2.35-4.6,3.3-6.81,1.21-2.84,2.67-3.06,4.97-2.97-1.02,1.74-2.03,3.47-3.05,5.21-.5.5-.99,1-1.49,1.5-1.24,1.02-2.49,2.04-3.73,3.06Z"/><path class="cls-63" d="m252.01,251.28c1.24-1.02,2.49-2.04,3.73-3.06,1.35,3.29-.73,5.41-2.78,7.32-1.23,1.15-2.93,1.55-3.97-.57.51-.74,1.02-1.47,1.54-2.21.49-.49.99-.99,1.48-1.48Z"/><path class="cls-36" d="m270.78,221.26c-.36-1.49-.95-2.97-1-4.47-.04-1.13.82-2.26.94-3.43.3-2.79,1.69-2.97,3.8-1.85-1.25,3.25-2.5,6.5-3.74,9.75Z"/><path class="cls-63" d="m257.23,246.72c1.02-1.74,2.03-3.47,3.05-5.21.74-.76,1.48-1.52,2.21-2.28,1.46,3.07-.46,5.22-2.24,7.2-.5.55-1.99.22-3.02.29Z"/><path class="cls-63" d="m267.79,229.5c.24-.75.49-1.49.73-2.24.73-1.76,1.45-3.52,2.18-5.28,0,0,.1.04.1.04.41,1.8,1.41,3.74,1.02,5.34-.24.98-2.61,1.44-4.03,2.13Z"/><path class="cls-63" d="m235.5,264.81c2-1.25,4-2.51,6-3.76.52,2.61-.73,4.36-3.04,5.07-.78.24-1.96-.84-2.96-1.31Z"/><path class="cls-36" d="m250.53,252.76c-.51.74-1.02,1.47-1.54,2.21-.99.77-1.99,1.53-2.98,2.3-1.33-4.14-.96-4.51,4.52-4.51Z"/><path class="cls-76" d="m161.21,211.43c1.26,3.76-1.29,7.92-5.09,8.32,1.7-2.77,3.4-5.55,5.09-8.32Z"/><path class="cls-36" d="m270.7,221.98c-.73,1.76-1.45,3.52-2.18,5.28-.45-1.29-1.43-2.69-1.17-3.81.16-.71,2.17-.99,3.35-1.47Z"/></svg>